<?xml version="1.0" standalone="no"?>
<svg xmlns="http://www.w3.org/2000/svg" viewBox="0 0 133.248 36" width="133.248" height="36"><g fill="#a9927d" color="#a9927d" transform="translate(0 4) scale(0.5833334)"><svg width="48.0" height="48.0" x="0.0" y="0.0" viewBox="0 0 48 48"><path fill="currentColor" fill-rule="nonzero" d="M.39.66v47.2h47.2V.66H.39zm24.41 23.6V2.09h5.25V22.9c0 9.2 7.58 17.58 16.11 18.09v5.39C34.31 45.95 24.8 36.2 24.8 24.26zM10.83 2.09h5.76V22.9c0 9.25-7.65 16.22-14.76 16.66v-5.62c3.14-.51 9-2.81 9-12.75V2.09zm-9 38.9c8.57-.45 16.2-8.86 16.2-18.1V2.09h5.25v22.16c0 11.98-9.56 21.74-21.45 22.13v-5.39zM31.49 22.9V2.09h5.76v19.09c0 9.85 5.75 12.19 8.91 12.74v5.63c-7.09-.5-14.67-7.44-14.67-16.65zm14.67 9.56c-3.13-.6-7.47-2.94-7.47-11.28V2.09h7.47v30.37zM9.4 2.09v19.09c0 8.42-4.43 10.72-7.56 11.3V2.09H9.4zm11.98 44.33c.83-.71 1.81-1.65 2.62-2.77.55.76 1.45 1.85 2.63 2.77h-5.25zm8.13 0c-2.93-1.07-4.87-4.4-4.89-4.44L24 40.9l-.62 1.08c-1.28 2.23-3.69 3.99-4.33 4.44h-9.9c7.38-2.68 13.05-8.93 14.9-16.67 1.86 7.74 7.52 13.99 14.9 16.67h-9.44z"></path></svg></g><path fill="#a9927d" fill-rule="nonzero" d="M2.16 16.27L2.16 3.31Q2.16 2.09 1.82 1.50Q1.49 0.91 0.48 0.91L0.48 0.91L0 0.91L0 0.43L2.16 0.43Q3.05 0.43 3.49 0.66Q3.94 0.89 4.13 1.49Q4.32 2.09 4.32 3.31L4.32 3.31L4.32 15.31L12.84 15.31L12.84 16.27L2.16 16.27ZM16.97 16.27Q16.08 16.27 15.64 16.04Q15.19 15.82 15.00 15.22Q14.81 14.62 14.81 13.39L14.81 13.39L14.81 0.43L16.97 0.43L16.97 13.39Q16.97 14.62 17.30 15.20Q17.64 15.79 18.65 15.79L18.65 15.79L19.13 15.79L19.13 16.27L16.97 16.27ZM20.09 16.27L20.09 15.79L30.05 1.39L24.29 1.39Q21.29 1.39 21.29 4.15L21.29 4.15L20.81 4.15L20.81 2.35Q20.81 0.43 22.85 0.43L22.85 0.43L33.29 0.43L23.09 15.31L32.93 15.31L32.93 16.27L20.09 16.27ZM42.19 16.51Q39.89 16.51 38.54 15.73Q37.20 14.95 36.64 13.42Q36.07 11.88 36.07 9.43L36.07 9.43L36.07 3.31Q36.07 2.09 35.74 1.50Q35.40 0.91 34.39 0.91L34.39 0.91L33.91 0.91L33.91 0.43L36.07 0.43Q36.96 0.43 37.40 0.66Q37.85 0.89 38.04 1.49Q38.23 2.09 38.23 3.31L38.23 3.31L38.23 10.15Q38.23 12.82 39.22 14.18Q40.20 15.55 42.48 15.55L42.48 15.55Q44.30 15.55 45.37 14.90Q46.44 14.26 46.90 12.94Q47.35 11.62 47.35 9.43L47.35 9.43L47.35 0.43L48.31 0.43L48.31 9.43Q48.31 11.93 47.78 13.45Q47.26 14.98 45.92 15.74Q44.59 16.51 42.19 16.51L42.19 16.51ZM64.10 16.51L53.78 3.67L53.78 16.27L52.82 16.27L52.82 3.31Q52.82 2.16 52.33 1.54Q51.84 0.91 50.66 0.91L50.66 0.91L50.42 0.91L50.42 0.43L51.98 0.43Q53.09 0.43 53.86 0.79Q54.62 1.15 55.22 1.87L55.22 1.87L63.62 12.31L63.62 0.43L64.58 0.43L64.58 16.51L64.10 16.51ZM81.41 16.39Q80.26 16.39 79.13 15.76Q78.00 15.12 77.33 13.27L77.33 13.27L76.73 11.71L70.01 11.71L68.09 16.27L67.01 16.27L73.73 0.43L74.45 0.43L79.73 13.27Q80.33 14.66 80.86 15.18Q81.38 15.70 82.37 15.79L82.37 15.79L82.37 16.27Q81.94 16.39 81.41 16.39L81.41 16.39ZM73.37 3.79L70.37 10.75L76.25 10.75L73.37 3.79ZM83.50 6.91L82.54 6.91L81.82 0.43L84.22 0.43L83.50 6.91ZM92.26 16.68Q90.94 16.68 89.66 16.32Q88.39 15.96 87.59 15.29Q86.78 14.62 86.78 13.75L86.78 13.75L86.78 11.18L87.22 11.18Q87.62 13.58 88.80 14.65Q89.98 15.72 92.04 15.72L92.04 15.72Q93.34 15.72 94.26 15.07Q95.18 14.42 95.18 13.27L95.18 13.27Q95.18 12.26 94.56 11.52Q93.94 10.78 92.54 9.96L92.54 9.96L89.59 8.21Q88.06 7.30 87.42 6.36Q86.78 5.42 86.78 4.08L86.78 4.08Q86.78 2.23 88.07 1.12Q89.35 0 91.44 0L91.44 0Q92.66 0 93.86 0.35Q95.06 0.70 95.84 1.36Q96.62 2.02 96.62 2.88L96.62 2.88L96.62 5.45L96.19 5.45Q95.78 3.05 94.64 2.00Q93.50 0.96 91.44 0.96L91.44 0.96Q90.34 0.96 89.50 1.63Q88.66 2.30 88.66 3.38L88.66 3.38Q88.66 4.37 89.27 5.02Q89.88 5.66 91.32 6.53L91.32 6.53L94.27 8.28Q95.90 9.26 96.58 10.10Q97.25 10.94 97.25 12.24L97.25 12.24Q97.25 14.26 95.90 15.47Q94.56 16.68 92.26 16.68L92.26 16.68Z" transform="translate(36, 9.864)"></path></svg>